<svg width="161.3mm" height="25.035mm" version="1.1" viewBox="0 0 161.3 25.035" xmlns="http://www.w3.org/2000/svg">
 <g transform="translate(-17.625 -16.031)">
  <path d="m32.627 16.246-2.3184 4.4785h14.383c0.57418 0 0.93036 0.15674 1.0684 0.4668 0.138 0.31006 0.04957 0.76832-0.26562 1.377l-1.0254 1.9805c-0.3033 0.58567-0.68538 1.0337-1.1445 1.3438-0.44172 0.29858-0.96754 0.44922-1.5762 0.44922h-10.094c-0.7694 0-1.509 0.09579-2.2188 0.29102-0.70974 0.19522-1.386 0.45994-2.0293 0.79297-0.62587 0.32154-1.2145 0.69425-1.7676 1.1191-0.54158 0.4249-1.0377 0.87292-1.4883 1.3438-0.45054 0.47083-0.85195 0.94737-1.2051 1.4297-0.3357 0.47083-0.61394 0.91885-0.83398 1.3438l-4.291 8.2852h22.686l2.3203-4.4785h-18.209l1.9727-3.8066c0.14744-0.21819 0.30615-0.43611 0.47656-0.6543 0.17042-0.21819 0.35846-0.41368 0.5625-0.58594 0.21553-0.17226 0.45875-0.30876 0.73047-0.41211 0.27171-0.10335 0.59151-0.15625 0.95898-0.15625h10.127c0.6316 0 1.3667-0.10798 2.2031-0.32617 0.8539-0.22967 1.724-0.59214 2.6113-1.0859 0.89328-0.50528 1.7524-1.1549 2.5762-1.9473 0.84119-0.80386 1.5614-1.7855 2.1621-2.9453l1.0449-2.0156c0.21408-0.41341 0.39077-0.85534 0.53125-1.3262 0.15791-0.48231 0.24593-0.95276 0.26562-1.4121 0.03713-0.47083-2.99e-4 -0.91886-0.11328-1.3438-0.11298-0.4249-0.32069-0.7976-0.625-1.1191-0.28688-0.33303-0.68583-0.59775-1.1934-0.79297-0.50753-0.19522-1.1386-0.29297-1.8965-0.29297zm24.564 0-6.3965 12.352c-0.16057 0.31006-0.25531 0.6033-0.2832 0.87891-0.02789 0.27561 0.0036 0.51595 0.0918 0.72266 0.1056 0.19522 0.26247 0.3561 0.47266 0.48242 0.21614 0.11484 0.4851 0.17188 0.80664 0.17188h15.916l-5.2266 10.094h4.5117l12.793-24.701h-4.5137l-5.2266 10.096h-13.695l5.2285-10.096z" stroke="#000" stroke-width=".23786" style="font-variant-ligatures:none"/>
  <text transform="matrix(1 0 -.4 1 1.1529 5.5609)" x="85.687653" y="17.946383" font-family="Audiowide" font-size="9.8778px" letter-spacing="0px" stroke-width=".26458" word-spacing="0px" style="font-variant-ligatures:none;inline-size:98.9662;line-height:1.25;white-space:pre" xml:space="preserve"><tspan x="85.687653" y="17.946383">Hours of Le Mans</tspan></text>
  <text transform="scale(1.5079 .66319)" x="58.401783" y="50.080223" font-family="Audiowide" font-size="12.378px" letter-spacing="9.2838px" stroke-width=".37901" word-spacing="0px" style="font-variant-ligatures:none;line-height:1.45" xml:space="preserve"><tspan x="58.401783" y="50.080223" font-family="Arial" font-size="12.378px" font-weight="bold" letter-spacing="9.2838px" stroke-width=".37901" style="line-height:1.45">2025</tspan></text>
 </g>
</svg>
